# xmcd
#
# Track frame offsets:
#	150
#	14134
#	30975
#	51287
#	65979
#	83022
#	105105
#	124983
#	142905
#	162670
#	179658
#	195185
#	211852
#	229332
#	247327
#
# Disc length: 3546 seconds
#
# Revision: 1
# Processed by: cddbd v1.5PL3 Copyright (c) Steve Scherf et al.
# Submitted via: audiograbber 1.83.01
#
DISCID=d60dd80f
DTITLE=Chartbuster Karaoke - CDG60216
DYEAR=1900
DGENRE=Country
TTITLE0=Jolie and The Wanted  - Boom
TTITLE1=Mark McGuinn - Mrs. Steven Rudy
TTITLE2=Hal Ketchum - She Is
TTITLE3=Jamie O'Neal - When I Think About Angels 
TTITLE4=Bill Luther - You Will Always Be Mine 
TTITLE5=Trent Summar and The New Row Mob - It Never Rains In Southern California
TTITLE6=Jessica Andrews - Make Me Love You 
TTITLE7=The Great Divide - Out Of Here Tonight 
TTITLE8=Brad Paisley - Two People Fell In Love
TTITLE9=Tammy Cochran - Angels In Waiting
TTITLE10=Eddy Raven  - Cowboys Don't Cry
TTITLE11=Rascall Flatts - While You Loved Me
TTITLE12=Loretta Lynn - I Can't Hear The Music
TTITLE13=Duet: Tracy Byrd and Mark Chesnutt - A Good Way To Get On My Bad Side
TTITLE14=Tim McGraw - Grown Men Don't Cry
EXTD=
EXTT0=
EXTT1=
EXTT2=
EXTT3=
EXTT4=
EXTT5=
EXTT6=
EXTT7=
EXTT8=
EXTT9=
EXTT10=
EXTT11=
EXTT12=
EXTT13=
EXTT14=
PLAYORDER=
